<svg id="tdupresslogo" data-name="tdupresslogo" xmlns="http://www.w3.org/2000/svg" viewBox="0 0 308.41 47.64"><defs><style>.cls-1{fill:#FFF;}</style></defs><title>tdupresslogo</title><path class="cls-1" d="M126.42,73.73,120.83,109H109.08l5.6-35.27h-9.73l1.55-10h31.2l-1.55,10Z" transform="translate(-104.95 -62.56)"/><path class="cls-1" d="M134.83,109,142,63.77h16.67a21.33,21.33,0,0,1,7.85,1.44,18.27,18.27,0,0,1,6.3,4A17.94,17.94,0,0,1,177,75.28a19.67,19.67,0,0,1,1.44,7.56,26.61,26.61,0,0,1-.29,3.54,25.71,25.71,0,0,1-4.92,11.4,28.4,28.4,0,0,1-9.73,8.23q-1.64.79-2.89,1.27a25.52,25.52,0,0,1-3,.92,28.13,28.13,0,0,1-3.09.62,22.89,22.89,0,0,1-3,.18Zm17.34-35.27-4,25.31h2.64a16.93,16.93,0,0,0,6.77-1.36,13.85,13.85,0,0,0,5.42-4.2,15.53,15.53,0,0,0,2.87-7.09,19.54,19.54,0,0,0,.18-2.52,11.71,11.71,0,0,0-.76-4.35A7.78,7.78,0,0,0,163,76.36a11.83,11.83,0,0,0-8.12-2.64Z" transform="translate(-104.95 -62.56)"/><path class="cls-1" d="M214.58,63.77h11.75l-4,25.43q-.59,3.46-1.26,6.24a20.25,20.25,0,0,1-2.11,5.16,17.19,17.19,0,0,1-3.9,4.57q-5.92,5-15.76,5a27.78,27.78,0,0,1-8.17-1.2,15.18,15.18,0,0,1-3.38-1.57,12.44,12.44,0,0,1-2.68-2.27,13.2,13.2,0,0,1-2.93-8.94,52.64,52.64,0,0,1,.7-7l4-25.43h11.75l-3.72,23.82a36.23,36.23,0,0,0-.53,5.39,7.86,7.86,0,0,0,1.44,5q1.43,1.88,5.1,1.88a8.41,8.41,0,0,0,5.57-1.76,9.69,9.69,0,0,0,2.9-4.25,41.4,41.4,0,0,0,1.49-6.3Z" transform="translate(-104.95 -62.56)"/><path class="cls-1" d="M226.62,109l7.15-45.23h18A20.6,20.6,0,0,1,259.37,65a9.57,9.57,0,0,1,5,3.84,11.16,11.16,0,0,1,1.82,6.53,21.23,21.23,0,0,1-.32,3.25,22,22,0,0,1-2.08,6.83,15.52,15.52,0,0,1-3.84,4.8,16.34,16.34,0,0,1-5.48,2.81,24.74,24.74,0,0,1-7,.91h-6.68l-2.4,15ZM244,73.23l-1.73,11.28h2a30.6,30.6,0,0,0,4.57-.29,5.78,5.78,0,0,0,3-1.44A6.4,6.4,0,0,0,253.57,79q.12-1.46.12-1.49a4.07,4.07,0,0,0-1-2.9,4.17,4.17,0,0,0-2.52-1.11,23.66,23.66,0,0,0-4.19-.26Z" transform="translate(-104.95 -62.56)"/><path class="cls-1" d="M292.62,90.46,303.9,109H289.25l-8.32-17.4h-.12L278,109H266.29l7.15-45.23H291a20.36,20.36,0,0,1,7.21,1.2,9.33,9.33,0,0,1,4.83,3.72,10.56,10.56,0,0,1,1.76,6.24,13.92,13.92,0,0,1-.23,2.75,18.15,18.15,0,0,1-2.11,5.89,14.37,14.37,0,0,1-4.07,4.48A13,13,0,0,1,292.62,90.46Zm-8.82-17.7L282,84h1.14a17.61,17.61,0,0,0,4.13-.41,7.26,7.26,0,0,0,3.16-1.7,5.72,5.72,0,0,0,1.76-3.52q.12-1.11.12-1.14a3.61,3.61,0,0,0-2.05-3.6,13.17,13.17,0,0,0-5.33-.91Z" transform="translate(-104.95 -62.56)"/><path class="cls-1" d="M338.41,73.73h-14l-1.2,7.56h13.27l-1.58,10H321.69L320.43,99h14l-1.55,10H307.1l7.15-45.23H340Z" transform="translate(-104.95 -62.56)"/><path class="cls-1" d="M376.38,66.29l-6.12,9.11a10.35,10.35,0,0,0-7.32-3,7,7,0,0,0-3.6,1,3.66,3.66,0,0,0-2,2.75,3.11,3.11,0,0,0,1.26,2.7,11.77,11.77,0,0,0,3.22,1.61l2.9.91a16.81,16.81,0,0,1,6.88,3.72A8.3,8.3,0,0,1,374,91.48a17.13,17.13,0,0,1-.18,2.29,22.78,22.78,0,0,1-2.31,7.15,15.32,15.32,0,0,1-4.28,5,20.36,20.36,0,0,1-6.17,3.16,24.13,24.13,0,0,1-7.34,1.08A23.78,23.78,0,0,1,338.65,105l6.53-9.49q4.69,4.69,9.73,4.69A7.69,7.69,0,0,0,359.1,99a4.39,4.39,0,0,0,2.23-3.37,3.54,3.54,0,0,0-1.79-3.28A18.22,18.22,0,0,0,355,90.51a31.75,31.75,0,0,1-5.77-2.17,7.65,7.65,0,0,1-3.4-2.87,8.19,8.19,0,0,1-1.26-4.8,16.49,16.49,0,0,1,.23-2.93,18.21,18.21,0,0,1,3.22-8A16.41,16.41,0,0,1,351,66.68a17.72,17.72,0,0,1,3.5-2.21,18.7,18.7,0,0,1,8.32-1.9,26.16,26.16,0,0,1,4.69.41,32.73,32.73,0,0,1,4.8,1.32A24.06,24.06,0,0,1,376.38,66.29Z" transform="translate(-104.95 -62.56)"/><path class="cls-1" d="M413.36,66.29l-6.12,9.11a10.35,10.35,0,0,0-7.32-3,7,7,0,0,0-3.6,1,3.66,3.66,0,0,0-2,2.75,3.11,3.11,0,0,0,1.26,2.7,11.77,11.77,0,0,0,3.22,1.61l2.9.91a16.81,16.81,0,0,1,6.88,3.72A8.3,8.3,0,0,1,411,91.48a17.13,17.13,0,0,1-.18,2.29,22.78,22.78,0,0,1-2.31,7.15,15.32,15.32,0,0,1-4.28,5,20.36,20.36,0,0,1-6.17,3.16,24.13,24.13,0,0,1-7.34,1.08A23.78,23.78,0,0,1,375.62,105l6.53-9.49q4.69,4.69,9.73,4.69a7.69,7.69,0,0,0,4.19-1.2,4.39,4.39,0,0,0,2.23-3.37,3.54,3.54,0,0,0-1.79-3.28A18.22,18.22,0,0,0,392,90.51a31.75,31.75,0,0,1-5.77-2.17,7.65,7.65,0,0,1-3.4-2.87,8.19,8.19,0,0,1-1.26-4.8,16.49,16.49,0,0,1,.23-2.93,18.21,18.21,0,0,1,3.22-8A16.41,16.41,0,0,1,388,66.68a17.72,17.72,0,0,1,3.5-2.21,18.7,18.7,0,0,1,8.32-1.9,26.16,26.16,0,0,1,4.69.41,32.73,32.73,0,0,1,4.8,1.32A24.06,24.06,0,0,1,413.36,66.29Z" transform="translate(-104.95 -62.56)"/></svg>
