<svg id="レイヤー_1" data-name="レイヤー 1" xmlns="http://www.w3.org/2000/svg" viewBox="0 0 315.46382 80.77441">
  <defs>
    <style>
      .cls-1 {
        fill: #231815;
      }

      .cls-2 {
        fill: none;
        stroke: #231815;
        stroke-miterlimit: 10;
        stroke-width: 0.75px;
      }
    </style>
  </defs>
  <title>tdupresslogo4</title>
  <g>
    <path class="cls-1" d="M152.48389,143.15918l-5.5957,35.27344h-11.748l5.5957-35.27344h-9.72656l1.55273-9.96094h31.20117l-1.55273,9.96094Z" transform="translate(-125.06195 -131.99707)"/>
    <path class="cls-1" d="M160.89209,178.43262l7.14844-45.23437h16.66992a21.33226,21.33226,0,0,1,7.85156,1.43555,18.2694,18.2694,0,0,1,6.29883,3.95508,17.94189,17.94189,0,0,1,4.16016,6.123,19.6707,19.6707,0,0,1,1.43555,7.55859,26.60827,26.60827,0,0,1-.293,3.54492,25.71413,25.71413,0,0,1-4.92187,11.39648,28.39742,28.39742,0,0,1-9.72656,8.23242q-1.64136.791-2.88574,1.27441a25.5246,25.5246,0,0,1-3.00293.92285,28.13474,28.13474,0,0,1-3.09082.61523,22.88643,22.88643,0,0,1-2.97363.17578Zm17.34375-35.27344-4.01367,25.3125h2.63672a16.92941,16.92941,0,0,0,6.76758-1.3623,13.849,13.849,0,0,0,5.41992-4.2041,15.53079,15.53079,0,0,0,2.87109-7.08984,19.54038,19.54038,0,0,0,.17578-2.51953,11.71385,11.71385,0,0,0-.76172-4.35059,7.78212,7.78212,0,0,0-2.22656-3.14941,11.8316,11.8316,0,0,0-8.11523-2.63672Z" transform="translate(-125.06195 -131.99707)"/>
    <path class="cls-1" d="M240.63818,133.19824h11.748l-4.01367,25.42969q-.58667,3.457-1.25977,6.24023a20.24534,20.24534,0,0,1-2.10937,5.15625,17.18571,17.18571,0,0,1-3.89648,4.57031q-5.918,5.03906-15.76172,5.03906a27.77975,27.77975,0,0,1-8.17383-1.20117,15.17581,15.17581,0,0,1-3.38379-1.56738,12.43549,12.43549,0,0,1-2.68066-2.27051,13.20368,13.20368,0,0,1-2.92969-8.93555,52.63792,52.63792,0,0,1,.70313-7.03125l4.043-25.42969h11.748l-3.7207,23.81836a36.23238,36.23238,0,0,0-.52734,5.39063,7.85662,7.85662,0,0,0,1.43555,5.03906q1.43481,1.875,5.09766,1.875a8.412,8.412,0,0,0,5.56641-1.75781,9.69069,9.69069,0,0,0,2.90039-4.248,41.39989,41.39989,0,0,0,1.49414-6.29883Z" transform="translate(-125.06195 -131.99707)"/>
    <path class="cls-1" d="M252.6792,178.43262l7.14844-45.23437h17.98828a20.60481,20.60481,0,0,1,7.61719,1.25977,9.5694,9.5694,0,0,1,4.98047,3.83789,11.16078,11.16078,0,0,1,1.81641,6.5332,21.23079,21.23079,0,0,1-.32227,3.252,22.015,22.015,0,0,1-2.08008,6.82617,15.51712,15.51712,0,0,1-3.83789,4.80469,16.34125,16.34125,0,0,1-5.47852,2.8125,24.74241,24.74241,0,0,1-7.002.9082h-6.67969l-2.40234,15Zm17.40234-35.77148-1.72852,11.2793h1.96289a30.59526,30.59526,0,0,0,4.57031-.293,5.78081,5.78081,0,0,0,2.98828-1.43555,6.40138,6.40138,0,0,0,1.75781-3.7793q.11646-1.46484.11719-1.49414a4.06641,4.06641,0,0,0-.9668-2.90039,4.17388,4.17388,0,0,0-2.51953-1.11328,23.661,23.661,0,0,0-4.18945-.26367Z" transform="translate(-125.06195 -131.99707)"/>
    <path class="cls-1" d="M318.68457,159.8877l11.2793,18.54492H315.31543l-8.32031-17.40234h-.11719l-2.7832,17.40234H292.34717l7.14795-45.23437h17.57813a20.35614,20.35614,0,0,1,7.207,1.20117,9.3337,9.3337,0,0,1,4.834,3.7207,10.55682,10.55682,0,0,1,1.75781,6.24023,13.91948,13.91948,0,0,1-.23437,2.75391,18.1498,18.1498,0,0,1-2.10937,5.88867,14.3662,14.3662,0,0,1-4.07227,4.48242A12.99692,12.99692,0,0,1,318.68457,159.8877Zm-8.81836-17.69531-1.78711,11.2793h1.14258a17.6098,17.6098,0,0,0,4.13086-.41016,7.26122,7.26122,0,0,0,3.16406-1.69922,5.71827,5.71827,0,0,0,1.75781-3.51562q.11719-1.11328.11719-1.14258a3.614,3.614,0,0,0-2.05078-3.60352,13.167,13.167,0,0,0-5.332-.9082Z" transform="translate(-125.06195 -131.99707)"/>
    <path class="cls-1" d="M364.47559,143.15918H350.501l-1.20117,7.55859h13.27148l-1.582,9.96094H347.74707l-1.25977,7.793h13.97461l-1.55273,9.96094h-25.752l7.14844-45.23437h25.72266Z" transform="translate(-125.06195 -131.99707)"/>
    <path class="cls-1" d="M402.44434,135.71777l-6.123,9.11133a10.34537,10.34537,0,0,0-7.32422-2.98828,6.96432,6.96432,0,0,0-3.60352,1.02539,3.66182,3.66182,0,0,0-2.02148,2.75391,3.108,3.108,0,0,0,1.25977,2.69531,11.77192,11.77192,0,0,0,3.22266,1.61133l2.90039.9082a16.81238,16.81238,0,0,1,6.88477,3.7207,8.30492,8.30492,0,0,1,2.46094,6.35742,17.13218,17.13218,0,0,1-.17578,2.28516,22.78169,22.78169,0,0,1-2.31445,7.14844,15.32231,15.32231,0,0,1-4.27734,5.03906,20.359,20.359,0,0,1-6.167,3.16406,24.13023,24.13023,0,0,1-7.33887,1.084A23.78109,23.78109,0,0,1,364.71,174.47754l6.5332-9.49219q4.6875,4.6875,9.72656,4.6875a7.69293,7.69293,0,0,0,4.18945-1.20117,4.38846,4.38846,0,0,0,2.22656-3.36914,3.5424,3.5424,0,0,0-1.78711-3.28125,18.2217,18.2217,0,0,0-4.51172-1.875,31.74846,31.74846,0,0,1-5.77148-2.168,7.65153,7.65153,0,0,1-3.39844-2.87109,8.1906,8.1906,0,0,1-1.25977-4.80469,16.49014,16.49014,0,0,1,.23438-2.92969,18.21265,18.21265,0,0,1,3.22266-7.96875,16.40729,16.40729,0,0,1,2.94434-3.09082,17.71647,17.71647,0,0,1,3.501-2.21191,18.70009,18.70009,0,0,1,8.32031-1.9043,26.16191,26.16191,0,0,1,4.6875.41016,32.73382,32.73382,0,0,1,4.80469,1.31836A24.05659,24.05659,0,0,1,402.44434,135.71777Z" transform="translate(-125.06195 -131.99707)"/>
    <path class="cls-1" d="M439.417,135.71777l-6.123,9.11133a10.34537,10.34537,0,0,0-7.32422-2.98828,6.96432,6.96432,0,0,0-3.60352,1.02539,3.66182,3.66182,0,0,0-2.02148,2.75391,3.108,3.108,0,0,0,1.25977,2.69531,11.77192,11.77192,0,0,0,3.22266,1.61133l2.90039.9082a16.81238,16.81238,0,0,1,6.88477,3.7207,8.30492,8.30492,0,0,1,2.46094,6.35742,17.13218,17.13218,0,0,1-.17578,2.28516,22.78169,22.78169,0,0,1-2.31445,7.14844,15.32231,15.32231,0,0,1-4.27734,5.03906,20.35381,20.35381,0,0,1-6.166,3.16406,24.13662,24.13662,0,0,1-7.33984,1.084,23.78109,23.78109,0,0,1-15.11719-5.15625l6.5332-9.49219q4.6875,4.6875,9.72656,4.6875a7.69293,7.69293,0,0,0,4.18945-1.20117,4.38846,4.38846,0,0,0,2.22656-3.36914,3.5424,3.5424,0,0,0-1.78711-3.28125,18.2217,18.2217,0,0,0-4.51172-1.875,31.74846,31.74846,0,0,1-5.77148-2.168,7.65153,7.65153,0,0,1-3.39844-2.87109,8.1906,8.1906,0,0,1-1.25977-4.80469,16.49014,16.49014,0,0,1,.23438-2.92969,18.21265,18.21265,0,0,1,3.22266-7.96875,16.41219,16.41219,0,0,1,2.94531-3.09082,17.7098,17.7098,0,0,1,3.5-2.21191,18.70009,18.70009,0,0,1,8.32031-1.9043,26.16191,26.16191,0,0,1,4.6875.41016,32.73382,32.73382,0,0,1,4.80469,1.31836A24.0566,24.0566,0,0,1,439.417,135.71777Z" transform="translate(-125.06195 -131.99707)"/>
  </g>
  <g>
    <path class="cls-1" d="M170.521,205.25879h-7.34473a24.51634,24.51634,0,0,0,9.769,6.33691,3.018,3.018,0,0,0-.50391.6001,26.92021,26.92021,0,0,1-10.15332-6.937h-.04785v7.39307H161.52v-7.39307h-.02393a26.48668,26.48668,0,0,1-9.98486,6.88867,3.16522,3.16522,0,0,0-.52783-.6001,25.31241,25.31241,0,0,0,9.625-6.28857h-6.9126V196.666H161.52v-2.73584H151.46338V193.21H161.52v-2.59229l1.08008.09619c-.02393.11963-.11963.21582-.35986.23975V193.21h10.29688v.72021H162.24023V196.666H170.521Zm-16.10547-7.87256v3.19238H161.52v-3.19238Zm0,3.9126v3.24023H161.52v-3.24023Zm15.38525-3.9126h-7.56055v3.19238h7.56055Zm0,7.15283v-3.24023h-7.56055v3.24023Z" transform="translate(-125.06195 -131.99707)"/>
    <path class="cls-1" d="M181.08008,206.26709c-.04834.144-.19238.19189-.43213.19189a20.57605,20.57605,0,0,1-4.84863,5.23242,2.54791,2.54791,0,0,0-.55176-.45605,16.88746,16.88746,0,0,0,4.80029-5.28027Zm5.16016-12.36133h10.27295v.72021H175.43945v-.72021H185.52V190.5459l1.08008.0957c-.02393.12012-.11963.21631-.35986.24023Zm7.22461,10.15332h-7.22461v7.39258c0,.67188-.19189.936-.792,1.08008a25.95734,25.95734,0,0,1-4.29639.12012,3.49046,3.49046,0,0,0-.33594-.67236c.91211.02393,1.7041.02393,2.35205.02393,2.32813,0,2.35205,0,2.35205-.52783v-7.4165h-6.84033v-6.64893h14.78516Zm-14.06494-5.92871v5.2085h13.34473v-5.2085ZM195.793,211.81152a44.80093,44.80093,0,0,0-4.87207-5.47266l.624-.312a47.44273,47.44273,0,0,1,4.89648,5.37646Z" transform="translate(-125.06195 -131.99707)"/>
    <path class="cls-1" d="M209.49609,201.44287v-6.12061H200.6875v3.81641h-.72021v-4.53662h9.52881v-2.08838h-8.35254v-.71973h17.61768v.71973h-8.54492v2.08838h9.69678v4.53662h-.72021v-3.81641h-8.97656v6.12061Zm-1.63184-1.70459v.72021H201.7915v-.72021Zm2.35205,10.897c0,.76807.312.96045,1.94434.96045h6.28857c1.39209,0,1.60791-.48,1.728-3.33643a1.9307,1.9307,0,0,0,.72021.312c-.16846,3-.48047,3.74414-2.44824,3.74414h-6.2168c-2.1123,0-2.73633-.26367-2.73633-1.7041v-1.39209h-6.84033v1.44043h-.72021v-8.209h16.22559v6.76855h-7.94482Zm-2.376-12.74512h-5.52051v-.71973h5.52051Zm1.65576,5.28076h-6.84033v2.28027h6.84033Zm-6.84033,5.32813h6.84033V206.1709h-6.84033Zm14.78516-3.04785V203.1709h-7.22461v2.28027Zm-7.22461,3.04785h7.22461V206.1709h-7.22461Zm1.68018-11.32861h5.73633v.71973h-5.73633Zm0,3.28809v-.72021h6.38428v.72021Z" transform="translate(-125.06195 -131.99707)"/>
    <path class="cls-1" d="M227.42383,199.28223c.64795.86426,2.35205,3.50439,2.73633,4.17676l-.50439.64795c-.35986-.74414-1.48779-2.64014-2.23193-3.84033v12.33691h-.72021v-13.585a33.38779,33.38779,0,0,1-3.45605,8.7124,3.16145,3.16145,0,0,0-.55225-.57568,32.651,32.651,0,0,0,3.84033-10.29687h-3.4082v-.72021h3.57617v-5.56836l1.08008.0957c-.02393.12012-.12012.21631-.35986.24023v5.23242H230.376v.72021h-2.95215Zm11.11279,4.58447a26.438,26.438,0,0,0,1.17627,4.46436,12.58061,12.58061,0,0,0,2.47217-3.64795l.96.312c-.02393.11963-.144.168-.35986.19189a12.98775,12.98775,0,0,1-2.78418,3.79248c.83984,1.91992,1.896,3,3.19189,3,.79248,0,1.08008-.6958,1.22412-3.19238a2.11111,2.11111,0,0,0,.64844.33643c-.168,2.688-.55225,3.6001-1.92041,3.6001-1.56006,0-2.78418-1.17627-3.72021-3.21631a18.81013,18.81013,0,0,1-4.89648,3.04834,2.86433,2.86433,0,0,0-.45605-.48,16.5954,16.5954,0,0,0,5.08838-3.21631,26.55063,26.55063,0,0,1-1.34424-4.99268h-4.896c-.07227.64844-.12012,1.32031-.21631,1.96826a26.01486,26.01486,0,0,1,3.88818,2.52051l-.48.55176a32.64753,32.64753,0,0,0-3.52832-2.3999c-.43164,2.42383-1.272,4.68018-3.09619,6.07227a2.1934,2.1934,0,0,0-.57617-.48c2.25635-1.68018,3.02441-4.87256,3.28857-8.23291h-1.728V203.147h7.22461a86.78021,86.78021,0,0,1-.88818-12.55322l1.104.07178c0,.144-.12012.24023-.35986.26416a75.6373,75.6373,0,0,0,.86377,12.21729h6.43262v.71973Zm-8.37646-3.98437.96-.04785c.57617-.74414,1.2002-1.728,1.82422-2.73633a14.67161,14.67161,0,0,0-2.78418-2.59229l.43164-.40771.74414.52783a27.84963,27.84963,0,0,0,1.80029-3.72021l.91211.43213c-.04785.12012-.19189.168-.38428.168a33.36931,33.36931,0,0,1-1.87207,3.50439,9.95206,9.95206,0,0,1,1.51221,1.51172c.69629-1.17578,1.34424-2.35205,1.82422-3.33594l.936.45605a.439.439,0,0,1-.4082.168,56.80436,56.80436,0,0,1-3.74414,5.97656l3.6001-.21631a14.98171,14.98171,0,0,0-1.05566-1.94385l.624-.28809a12.037,12.037,0,0,1,1.65576,3.43213l-.64795.35986a7.97322,7.97322,0,0,0-.33594-.98389c-1.91992.19189-3.74414.33594-4.96826.43213a.39086.39086,0,0,1-.28809.28809Zm8.2085-.168.91211-.02393c.52783-.72021,1.12793-1.60791,1.7041-2.56836a15.70681,15.70681,0,0,0-2.80811-2.61621l.43213-.40771.74365.52783a27.79007,27.79007,0,0,0,1.80029-3.72021l.91211.43213c-.04785.12012-.19189.168-.38379.168a33.28493,33.28493,0,0,1-1.87256,3.50439,11.55011,11.55011,0,0,1,1.53613,1.53613c.69629-1.17627,1.34424-2.37646,1.80029-3.36035l.936.45605a.43859.43859,0,0,1-.40771.168,60.0828,60.0828,0,0,1-3.60059,5.83252c1.12793-.04834,2.42432-.12012,3.74414-.19189a15.14966,15.14966,0,0,0-1.08008-1.82422l.62451-.28809a12.36316,12.36316,0,0,1,1.77588,3.43213l-.624.38428a7.62163,7.62163,0,0,0-.43213-1.12842c-1.99219.168-3.84033.312-5.08838.38428a.356.356,0,0,1-.312.28809Zm1.99219,1.0083a14.76683,14.76683,0,0,1,2.97607,1.77588l-.35986.52832a15.92723,15.92723,0,0,0-2.97607-1.84814Z" transform="translate(-125.06195 -131.99707)"/>
    <path class="cls-1" d="M268.6333,198.77832h-9.86475c1.60791,6.26465,4.96826,11.18506,10.15283,13.20117a3.70233,3.70233,0,0,0-.57617.64795c-5.25635-2.25586-8.64062-7.24854-10.3208-13.84912h-.12012c-.936,5.23242-3.45654,10.94482-10.34473,13.87354a3.79274,3.79274,0,0,0-.52832-.55225c6.67285-2.73633,9.16895-8.18457,10.105-13.32129h-9.793v-.72021h9.91309a48.12489,48.12489,0,0,0,.45605-7.44043l1.17578.04785c0,.19238-.168.28809-.43164.33643a49.73754,49.73754,0,0,1-.43213,7.05615H268.6333Z" transform="translate(-125.06195 -131.99707)"/>
    <path class="cls-1" d="M292.68115,205.019v.71973h-10.417v5.73682a.98384.98384,0,0,1-.86377,1.15186,24.9078,24.9078,0,0,1-4.27246.12012,4.284,4.284,0,0,0-.38428-.72021c1.10449.02441,2.04053.04834,2.73633.04834,1.92041,0,2.06445,0,2.06445-.57617v-5.76074h-10.249V205.019h10.249v-2.40039l.792.07227a21.93785,21.93785,0,0,0,4.94434-2.88037H275.08789v-.72021h13.03271l.16846-.04785.59961.43213a.33324.33324,0,0,1-.23975.11963,24.69311,24.69311,0,0,1-6.38477,3.79248V205.019Zm-19.96973-9.457v4.22461h-.72021v-4.94434h14.8335a30.8025,30.8025,0,0,0,3.21631-4.12842l.86426.50391c-.04834.144-.24023.168-.38428.144a38.5566,38.5566,0,0,1-2.832,3.48047h4.44043v4.94434h-.72021V195.562Zm3.45654-.71973a18.2739,18.2739,0,0,0-2.47217-3.60059l.59961-.312a16.131,16.131,0,0,1,2.47266,3.52832Zm4.53613-4.34473a16.00827,16.00827,0,0,1,2.08838,3.98438l-.624.28809a16.19454,16.19454,0,0,0-2.06445-4.05615Z" transform="translate(-125.06195 -131.99707)"/>
    <path class="cls-1" d="M300.83984,204.4668c.93652.72021,3.7207,3.09619,4.36914,3.69629l-.50391.64795a50.71233,50.71233,0,0,0-3.86523-3.57617v7.417h-.71973V204.4668a21.24081,21.24081,0,0,1-4.729,5.97656,2.86958,2.86958,0,0,0-.52783-.55176,18.20115,18.20115,0,0,0,5.0166-6.33691h-4.68018V202.835h4.92041v-3.09668h-5.23291v-.71973H306.457v.71973h-5.61719V202.835h5.28125v.71973h-5.28125Zm5.11328-11.01709v.72021H295.36768v-.72021h4.75244v-2.856l1.08008.09619c-.02344.11963-.12012.21582-.36035.23975v2.52Zm-8.25732,1.05615a14.75113,14.75113,0,0,1,1.2002,4.05664l-.69629.19189a15.67818,15.67818,0,0,0-1.15234-4.10449Zm6.67236.36035c-.04785.11963-.19141.19189-.40723.19189a33.176,33.176,0,0,1-1.46484,3.79248s-.5752-.26416-.59961-.26416a29.11389,29.11389,0,0,0,1.48828-4.12842Zm12.60156,4.15234v.71973h-3.19238v12.9375h-.71973v-12.9375h-4.75293v1.6084c0,3.62451-.45605,8.04053-4.00781,11.353a1.92185,1.92185,0,0,0-.52832-.55225c3.4082-3.09619,3.81641-7.29639,3.81641-10.80078v-8.4248l.86426.33594a37.03253,37.03253,0,0,0,7.36816-2.56787l.86426.624a.2937.2937,0,0,1-.21582.07178.47087.47087,0,0,1-.168-.02393,48.22737,48.22737,0,0,1-7.99316,2.59229v5.06445Z" transform="translate(-125.06195 -131.99707)"/>
    <path class="cls-1" d="M328.5127,199.33057H320.832v13.36914h-.71973v-20.9541h8.40039Zm-.71973-6.86475H320.832V195.106H327.793Zm-6.96094,6.14453H327.793v-2.78418H320.832Zm15.28906,3.16846h-2.13574v10.39258h-.7207v-2.3042c-3.52832.24023-7.17578.43213-9.38477.55225a.33087.33087,0,0,1-.31152.28809l-.28809-1.0083,2.52051-.11963v-7.80078h-2.209v-.72021h12.5293Zm-2.85645,1.94385v-1.94385h-6.74414v1.94385Zm0,2.73633v-2.01611h-6.74414V206.459Zm-6.74414.72021v2.35205c2.04-.0957,4.39258-.21582,6.74414-.35986V207.1792Zm13.34473-15.43359v19.53809c0,.74365-.21582,1.08008-.76758,1.22412a20.72014,20.72014,0,0,1-3.60059.144,3.01675,3.01675,0,0,0-.31152-.79248c.81543,0,1.584.02393,2.18359.02393,1.7041,0,1.77637,0,1.77637-.57568V199.33057H331.249v-7.585Zm-.71973.72021h-7.17676V195.106h7.17676Zm-7.17676,6.14453h7.17676v-2.78418h-7.17676Z" transform="translate(-125.06195 -131.99707)"/>
    <path class="cls-1" d="M353.52051,196.47412H353.209a26.69034,26.69034,0,0,1-9.91309,6.02441,2.61882,2.61882,0,0,0-.50391-.624,25.245,25.245,0,0,0,9.43262-5.40039H343.2002v-.71973h10.32031v-3.3125c-2.80762.26416-5.80859.43213-8.49609.55225a1.67778,1.67778,0,0,0-.19238-.64844c5.66406-.23975,12.88867-.83984,16.44141-1.7041l.67188.67236c-.02344.02393-.07227.02393-.12012.02393a.82737.82737,0,0,1-.21582-.02393,61.80027,61.80027,0,0,1-7.36816,1.05566v3.38477h10.46484v.71973h-9.07324a24.66349,24.66349,0,0,0,9.43262,5.1123,4.11622,4.11622,0,0,0-.50391.62451,26.61455,26.61455,0,0,1-9.93652-5.73682h-.38379v5.59277h-.7207Zm-3.76855,7.63281c.7207-1.03223,1.36816-2.04,1.94434-2.92822l1.00879.312c-.07227.144-.19238.19189-.45605.144-.48047.74414-1.03223,1.584-1.63281,2.47217h14.3291v.72021h-5.25586a9.55239,9.55239,0,0,1-3.69629,4.53613,60.05869,60.05869,0,0,1,8.30469,2.64014l-.48047.624a61.4046,61.4046,0,0,0-8.64062-2.78418c-2.73633,1.53613-6.55273,2.44824-11.59277,2.83252a2.43439,2.43439,0,0,0-.33594-.72021c4.68066-.312,8.25684-1.05615,10.873-2.35205-2.06445-.50439-4.249-.936-6.48047-1.32031l-.76855,1.03223-.624-.33594c.86426-1.10449,1.94434-2.61621,3.02441-4.15234h-6.36035v-.72021Zm.36035.72021c-.67187.98389-1.3916,1.96777-2.04,2.87988,2.35254.38428,4.7041.86426,6.93652,1.4165a9.86343,9.86343,0,0,0,3.88867-4.29639Z" transform="translate(-125.06195 -131.99707)"/>
    <path class="cls-1" d="M375.14453,209.57959a.75293.75293,0,0,1-.48047.168,28.92785,28.92785,0,0,1-7.05664,2.92822,3.76856,3.76856,0,0,0-.47949-.6001,25.25208,25.25208,0,0,0,7.08008-2.9043Zm-5.52051-11.041h16.8252v10.20068H369.624Zm.71973.71973v2.40039h15.38574V199.2583Zm0,3.12061v2.44824h15.38574v-2.44824Zm0,3.168V208.019h15.38574v-2.47217Zm.624-13.84912h14.1377v4.92041h-14.1377Zm.7207.72021v3.48h12.69727v-3.48Zm16.68164,20.28174a64.55482,64.55482,0,0,0-7.585-2.95215l.59961-.52832a71.92958,71.92958,0,0,1,7.56055,2.9043Z" transform="translate(-125.06195 -131.99707)"/>
    <path class="cls-1" d="M402.69727,190.59375c-.04883.144-.2168.21582-.38477.26416a30.37087,30.37087,0,0,0,10.84961,8.88037,2.4099,2.4099,0,0,0-.48047.6001,31.88061,31.88061,0,0,1-10.9209-9.00049c-2.0166,3.144-6.2168,6.79248-10.48926,9.0249-.0957-.144-.28809-.38428-.43164-.55225,4.27246-2.18408,8.54492-5.88037,10.53711-9.313Zm-10.80176,13.20117v-.72021h20.21v.72021H400.29688l.07129.02393a.54975.54975,0,0,1-.45605.21582,69.41018,69.41018,0,0,1-3.45605,6.76855c3.67285-.0957,8.209-.21582,12.60156-.35986a37.52149,37.52149,0,0,0-4.2002-4.29639l.55176-.33594a34.80978,34.80978,0,0,1,6,6.55273l-.59961.40771c-.33594-.50391-.74414-1.104-1.248-1.728-6.12109.26416-12.76953.50391-16.72949.6001-.02441.19189-.14453.26416-.3125.312l-.33594-1.05615,3.43262-.07178a56.83258,56.83258,0,0,0,3.57617-7.03271Zm4.00879-5.40039h11.88086v.71973H395.9043Z" transform="translate(-125.06195 -131.99707)"/>
  </g>
  <line class="cls-2" y1="52.77581" x2="315.46382" y2="52.77581"/>
</svg>
