<svg id="レイヤー_1" data-name="レイヤー 1" xmlns="http://www.w3.org/2000/svg" viewBox="0 0 246.72656 66.67822"><defs><style>.cls-1{fill:#231815;}</style></defs><title>TDUPRESS-logo2</title><path class="cls-1" d="M142.9375,112.78125,138.46094,141H129.0625l4.47656-28.21875h-7.78125L127,104.8125h24.96094l-1.24219,7.96875Z" transform="translate(-125.75781 -103.85156)"/><path class="cls-1" d="M149.66406,141l5.71875-36.1875h13.33594A17.05631,17.05631,0,0,1,175,105.96094a14.6003,14.6003,0,0,1,5.03906,3.16406,14.35352,14.35352,0,0,1,3.32813,4.89844,15.72643,15.72643,0,0,1,1.14844,6.04688,21.221,21.221,0,0,1-.23437,2.83594,20.56437,20.56437,0,0,1-3.9375,9.11719,22.72221,22.72221,0,0,1-7.78125,6.58594q-1.3125.63281-2.30859,1.01953a20.39656,20.39656,0,0,1-2.40234.73828,22.50778,22.50778,0,0,1-2.47266.49219A18.30484,18.30484,0,0,1,163,141Zm13.875-28.21875-3.21094,20.25h2.10938a13.54353,13.54353,0,0,0,5.41406-1.08984,11.07646,11.07646,0,0,0,4.33594-3.36328,12.42642,12.42642,0,0,0,2.29688-5.67187,15.637,15.637,0,0,0,.14063-2.01562,9.37108,9.37108,0,0,0-.60937-3.48047,6.21935,6.21935,0,0,0-1.78125-2.51953,9.4646,9.4646,0,0,0-6.49219-2.10937Z" transform="translate(-125.75781 -103.85156)"/><path class="cls-1" d="M213.46094,104.8125h9.39844l-3.21094,20.34375q-.46875,2.76563-1.00781,4.99219a16.19627,16.19627,0,0,1-1.6875,4.125,13.74144,13.74144,0,0,1-3.11719,3.65625q-4.73437,4.03125-12.60937,4.03125A22.2238,22.2238,0,0,1,194.6875,141a12.14064,12.14064,0,0,1-2.707-1.25391,9.97822,9.97822,0,0,1-2.14453-1.81641,10.563,10.563,0,0,1-2.34375-7.14844,42.09859,42.09859,0,0,1,.5625-5.625l3.23438-20.34375h9.39844l-2.97656,19.05469a28.98123,28.98123,0,0,0-.42187,4.3125,6.286,6.286,0,0,0,1.14844,4.03125q1.14844,1.5,4.07813,1.5a6.72889,6.72889,0,0,0,4.45313-1.40625,7.75477,7.75477,0,0,0,2.32031-3.39844,33.11992,33.11992,0,0,0,1.19531-5.03906Z" transform="translate(-125.75781 -103.85156)"/><path class="cls-1" d="M223.09375,141l5.71875-36.1875h14.39063a16.47581,16.47581,0,0,1,6.09375,1.00781,7.65552,7.65552,0,0,1,3.98438,3.07031,8.92778,8.92778,0,0,1,1.45313,5.22656,16.98464,16.98464,0,0,1-.25781,2.60156,17.60482,17.60482,0,0,1-1.66406,5.46094,12.41256,12.41256,0,0,1-3.07031,3.84375,13.073,13.073,0,0,1-4.38281,2.25A19.79392,19.79392,0,0,1,239.75781,129h-5.34375l-1.92187,12Zm13.92188-28.61719-1.38281,9.02344h1.57031a24.46887,24.46887,0,0,0,3.65625-.23437,4.62465,4.62465,0,0,0,2.39063-1.14844A5.11891,5.11891,0,0,0,244.65625,117q.09375-1.17187.09375-1.19531a3.25184,3.25184,0,0,0-.77344-2.32031,3.3391,3.3391,0,0,0-2.01562-.89062,18.92877,18.92877,0,0,0-3.35156-.21094Z" transform="translate(-125.75781 -103.85156)"/><path class="cls-1" d="M275.89844,126.16406,284.92188,141H273.20313l-6.65625-13.92187h-.09375L264.22656,141h-9.39844l5.71875-36.1875h14.0625a16.28492,16.28492,0,0,1,5.76563.96094,7.465,7.465,0,0,1,3.86719,2.97656,8.44546,8.44546,0,0,1,1.40625,4.99219,11.13559,11.13559,0,0,1-.1875,2.20313,14.51984,14.51984,0,0,1-1.6875,4.71094,11.493,11.493,0,0,1-3.25781,3.58594A10.39754,10.39754,0,0,1,275.89844,126.16406Zm-7.05469-14.15625-1.42969,9.02344h.91406a14.10879,14.10879,0,0,0,3.30469-.32812,5.809,5.809,0,0,0,2.53125-1.35937,4.57671,4.57671,0,0,0,1.40625-2.8125q.09375-.89062.09375-.91406a2.89116,2.89116,0,0,0-1.64062-2.88281,10.5269,10.5269,0,0,0-4.26562-.72656Z" transform="translate(-125.75781 -103.85156)"/><path class="cls-1" d="M312.53125,112.78125H301.35156l-.96094,6.04688h10.61719l-1.26562,7.96875H299.14844l-1.00781,6.23438h11.17969L308.07813,141H287.47656l5.71875-36.1875h20.57813Z" transform="translate(-125.75781 -103.85156)"/><path class="cls-1" d="M342.90625,106.82813l-4.89844,7.28906a8.2763,8.2763,0,0,0-5.85937-2.39062,5.57145,5.57145,0,0,0-2.88281.82031,2.9288,2.9288,0,0,0-1.61719,2.20313,2.48687,2.48687,0,0,0,1.00781,2.15625,9.41754,9.41754,0,0,0,2.57813,1.28906l2.32031.72656a13.44991,13.44991,0,0,1,5.50781,2.97656,6.64394,6.64394,0,0,1,1.96875,5.08594,13.70574,13.70574,0,0,1-.14062,1.82813,18.22869,18.22869,0,0,1-1.85156,5.71875,12.2618,12.2618,0,0,1-3.42187,4.03125,16.30482,16.30482,0,0,1-4.93359,2.53125,19.29215,19.29215,0,0,1-5.87109.86719,19.02712,19.02712,0,0,1-12.09375-4.125l5.22656-7.59375q3.75,3.75,7.78125,3.75a6.15764,6.15764,0,0,0,3.35156-.96094,3.51077,3.51077,0,0,0,1.78125-2.69531,2.83352,2.83352,0,0,0-1.42969-2.625,14.56239,14.56239,0,0,0-3.60937-1.5,25.39877,25.39877,0,0,1-4.61719-1.73437,6.1237,6.1237,0,0,1-2.71875-2.29687,6.55331,6.55331,0,0,1-1.00781-3.84375,13.189,13.189,0,0,1,.1875-2.34375,14.56822,14.56822,0,0,1,2.57813-6.375,13.114,13.114,0,0,1,2.35547-2.47266,14.17318,14.17318,0,0,1,2.80078-1.76953,14.96007,14.96007,0,0,1,6.65625-1.52344,20.92953,20.92953,0,0,1,3.75.32813,26.187,26.187,0,0,1,3.84375,1.05469A19.21574,19.21574,0,0,1,342.90625,106.82813Z" transform="translate(-125.75781 -103.85156)"/><path class="cls-1" d="M372.48438,106.82813l-4.89844,7.28906a8.2763,8.2763,0,0,0-5.85937-2.39062,5.57145,5.57145,0,0,0-2.88281.82031,2.9288,2.9288,0,0,0-1.61719,2.20313,2.48687,2.48687,0,0,0,1.00781,2.15625,9.41754,9.41754,0,0,0,2.57813,1.28906l2.32031.72656a13.44991,13.44991,0,0,1,5.50781,2.97656,6.64394,6.64394,0,0,1,1.96875,5.08594,13.70574,13.70574,0,0,1-.14062,1.82813,18.22869,18.22869,0,0,1-1.85156,5.71875,12.2618,12.2618,0,0,1-3.42187,4.03125,16.30482,16.30482,0,0,1-4.93359,2.53125,19.29215,19.29215,0,0,1-5.87109.86719,19.02712,19.02712,0,0,1-12.09375-4.125l5.22656-7.59375q3.75,3.75,7.78125,3.75a6.15764,6.15764,0,0,0,3.35156-.96094,3.51077,3.51077,0,0,0,1.78125-2.69531,2.83352,2.83352,0,0,0-1.42969-2.625,14.56239,14.56239,0,0,0-3.60937-1.5,25.39877,25.39877,0,0,1-4.61719-1.73437,6.1237,6.1237,0,0,1-2.71875-2.29687,6.55331,6.55331,0,0,1-1.00781-3.84375,13.189,13.189,0,0,1,.1875-2.34375,14.56822,14.56822,0,0,1,2.57813-6.375,13.114,13.114,0,0,1,2.35547-2.47266,14.17318,14.17318,0,0,1,2.80078-1.76953,14.96007,14.96007,0,0,1,6.65625-1.52344,20.92953,20.92953,0,0,1,3.75.32813,26.187,26.187,0,0,1,3.84375,1.05469A19.21574,19.21574,0,0,1,372.48438,106.82813Z" transform="translate(-125.75781 -103.85156)"/><path class="cls-1" d="M161.44873,164.894H155.939a18.39515,18.39515,0,0,0,7.32813,4.75391,2.26887,2.26887,0,0,0-.37793.44971,20.18305,20.18305,0,0,1-7.61621-5.20361h-.03613v5.5459h-.54V164.894h-.01807a19.87572,19.87572,0,0,1-7.49023,5.168,2.3618,2.3618,0,0,0-.39648-.4502,18.98294,18.98294,0,0,0,7.22021-4.71777h-5.18555v-6.4458h5.87012V156.396h-7.54443v-.54053h7.54443v-1.94434l.81006.07178c-.01807.09033-.08984.16211-.27.18018v1.69238h7.72412v.54053h-7.72412v2.05225h6.21191Zm-12.08154-5.90527v2.39453h5.32959v-2.39453Zm0,2.93457V164.354h5.32959v-2.43066Zm11.541-2.93457h-5.67139v2.39453h5.67139Zm0,5.36523v-2.43066h-5.67139V164.354Z" transform="translate(-125.75781 -103.85156)"/><path class="cls-1" d="M169.36572,165.65039c-.03613.10791-.144.144-.32422.144a15.42382,15.42382,0,0,1-3.63721,3.92529,1.91457,1.91457,0,0,0-.41406-.34229,12.67474,12.67474,0,0,0,3.60107-3.96094Zm3.87109-9.27246h7.70605v.54H165.13428v-.54h7.5625v-2.521l.81006.07227c-.01807.08984-.08984.16211-.27.17969Zm5.41943,7.61621h-5.41943v5.54541c0,.50439-.144.70215-.59424.81055a19.48976,19.48976,0,0,1-3.22314.08984,2.60518,2.60518,0,0,0-.252-.50391c.68408.01758,1.27832.01758,1.76465.01758,1.74658,0,1.76465,0,1.76465-.396v-5.56348h-5.13184v-4.98779h11.09131Zm-10.55078-4.44727v3.90674h10.01074v-3.90674Zm12.29736,10.2627a33.65351,33.65351,0,0,0-3.65479-4.105l.46777-.23437a35.61924,35.61924,0,0,1,3.67334,4.0332Z" transform="translate(-125.75781 -103.85156)"/><path class="cls-1" d="M190.67871,162.03125v-4.59131H184.0708v2.86279h-.54053V156.8999h7.14844V155.3335H184.4126v-.54h13.21631v.54h-6.41016v1.56641h7.27441v3.40283h-.54053v-2.86279h-6.73389v4.59131Zm-1.22461-1.27832v.54053h-4.55518v-.54053Zm1.76465,8.17432c0,.57617.23389.7207,1.4585.7207h4.71729c1.04443,0,1.20654-.36035,1.29639-2.50293a1.44956,1.44956,0,0,0,.54.23389c-.126,2.251-.35986,2.80908-1.83643,2.80908h-4.66309c-1.585,0-2.05273-.19824-2.05273-1.27832v-1.04443h-5.13184v1.08008h-.54V162.7876h12.17188v5.07764h-5.96ZM189.436,159.3667h-4.14111v-.54H189.436Zm1.24268,3.96094h-5.13184v1.71094h5.13184Zm-5.13184,3.99756h5.13184v-1.74658h-5.13184Zm11.09131-2.28662v-1.71094h-5.41943v1.71094Zm-5.41943,2.28662h5.41943v-1.74658h-5.41943Zm1.26025-8.49854h4.30322v.54H192.479Zm0,2.4668v-.54053h4.78955v.54053Z" transform="translate(-125.75781 -103.85156)"/><path class="cls-1" d="M204.123,160.41113c.48633.64795,1.76465,2.62842,2.05273,3.13281l-.37793.48584c-.27-.55811-1.11621-1.98047-1.6748-2.88086v9.25488h-.54V160.21289a25.04036,25.04036,0,0,1-2.59277,6.53613,2.36913,2.36913,0,0,0-.41406-.43213,24.49489,24.49489,0,0,0,2.88086-7.72461h-2.55664v-.54H203.583V153.875l.81055.07178c-.01807.09033-.09033.16211-.27051.18018v3.92529h2.21484v.54H204.123Zm8.33691,3.439a19.84428,19.84428,0,0,0,.88184,3.34863,9.41824,9.41824,0,0,0,1.85449-2.73633l.7207.23389c-.01807.08984-.1084.126-.27051.144a9.72681,9.72681,0,0,1-2.08838,2.84473c.63037,1.44043,1.42236,2.251,2.39453,2.251.59424,0,.81055-.52246.91846-2.395a1.562,1.562,0,0,0,.48633.252c-.12646,2.0166-.41455,2.70117-1.44043,2.70117-1.17041,0-2.08887-.88232-2.791-2.41309a14.09661,14.09661,0,0,1-3.67334,2.28662,2.1315,2.1315,0,0,0-.3418-.35986,12.44359,12.44359,0,0,0,3.81689-2.4126,19.88258,19.88258,0,0,1-1.0083-3.74512h-3.67285c-.0542.48584-.09033.99023-.16211,1.47656a19.54249,19.54249,0,0,1,2.917,1.89014l-.36035.41455a24.502,24.502,0,0,0-2.647-1.80078,7.03024,7.03024,0,0,1-2.32227,4.55518,1.64728,1.64728,0,0,0-.43213-.35986c1.69238-1.26025,2.26855-3.65527,2.46631-6.17578h-1.2959v-.54h5.41943a65.14492,65.14492,0,0,1-.6665-9.417l.82861.05371c0,.1084-.09033.18018-.27.19824a56.71117,56.71117,0,0,0,.64795,9.165h4.82568v.54Zm-6.28418-2.98926.72021-.03564c.43213-.55811.90039-1.29639,1.36865-2.05273a11.00425,11.00425,0,0,0-2.08887-1.94482L206.5,156.522l.55811.396a20.86262,20.86262,0,0,0,1.35059-2.791l.68408.32422c-.03613.08984-.144.126-.28809.126a25.08163,25.08163,0,0,1-1.4043,2.62891,7.45,7.45,0,0,1,1.13428,1.13428c.522-.88232,1.0083-1.76465,1.36816-2.50293l.70215.34229a.3291.3291,0,0,1-.30615.126,42.575,42.575,0,0,1-2.80859,4.4834l2.70068-.16211a11.2253,11.2253,0,0,0-.792-1.4585l.46826-.21582a9.02914,9.02914,0,0,1,1.24219,2.57471l-.48633.27a5.98344,5.98344,0,0,0-.252-.73828c-1.44043.144-2.80859.252-3.72705.32422a.292.292,0,0,1-.21631.21582Zm6.15771-.126.68457-.01758c.396-.54053.84619-1.20654,1.27832-1.92676a11.78579,11.78579,0,0,0-2.10693-1.96289l.32422-.30566.55811.396a20.86262,20.86262,0,0,0,1.35059-2.791l.68408.32422c-.03613.08984-.144.126-.28809.126a24.90024,24.90024,0,0,1-1.4043,2.62891,8.65184,8.65184,0,0,1,1.15234,1.15234c.522-.88232,1.0083-1.78271,1.35059-2.521l.70215.34229a.32967.32967,0,0,1-.30615.126,45.10754,45.10754,0,0,1-2.70068,4.37549c.84619-.03613,1.81836-.09033,2.80859-.144a11.36869,11.36869,0,0,0-.81006-1.36865l.46777-.21582a9.28333,9.28333,0,0,1,1.33252,2.57471l-.46826.28809a5.67138,5.67138,0,0,0-.32373-.84619c-1.49463.126-2.88086.23389-3.81738.28809a.267.267,0,0,1-.23389.21582Zm1.49463.75635a11.0845,11.0845,0,0,1,2.23242,1.33252l-.27.396a11.95572,11.95572,0,0,0-2.23242-1.38623Z" transform="translate(-125.75781 -103.85156)"/><path class="cls-1" d="M235.0332,160.03271h-7.40039c1.20654,4.69971,3.72705,8.39063,7.61621,9.90332a2.77211,2.77211,0,0,0-.43213.48584c-3.94287-1.69238-6.48193-5.4375-7.74219-10.38916h-.08984c-.70264,3.92529-2.59277,8.21045-7.76025,10.40723a2.8713,2.8713,0,0,0-.39648-.41406c5.00586-2.05273,6.87793-6.13965,7.58057-9.99316H219.0625v-.54h7.436a36.10176,36.10176,0,0,0,.34229-5.58154l.88184.03564c0,.14453-.126.21631-.32373.25244a37.23521,37.23521,0,0,1-.32422,5.29346h7.9585Z" transform="translate(-125.75781 -103.85156)"/><path class="cls-1" d="M253.06934,164.71436v.54h-7.81445v4.30322a.73834.73834,0,0,1-.64844.86426,18.6337,18.6337,0,0,1-3.20508.09033,3.14426,3.14426,0,0,0-.28809-.54053c.82861.01807,1.53076.03613,2.05273.03613,1.44043,0,1.54883,0,1.54883-.43213v-4.32129h-7.68848v-.54h7.68848v-1.80078l.59375.0542a16.47338,16.47338,0,0,0,3.70947-2.16064h-9.147v-.54h9.77686l.126-.03613.4502.32422a.2502.2502,0,0,1-.18018.08984,18.521,18.521,0,0,1-4.78906,2.84473v1.22461Zm-14.98047-7.09424v3.16895h-.54053v-3.709h11.12744a23.11,23.11,0,0,0,2.4126-3.09717l.64844.37842c-.03613.10791-.18018.126-.28809.10791a28.99709,28.99709,0,0,1-2.12451,2.61084h3.33057v3.709h-.54v-3.16895Zm2.59277-.54a13.7173,13.7173,0,0,0-1.855-2.70068l.4502-.23437a12.09423,12.09423,0,0,1,1.85449,2.647Zm3.40283-3.25928a12.0136,12.0136,0,0,1,1.56641,2.98926l-.46826.21582a12.16036,12.16036,0,0,0-1.54834-3.043Z" transform="translate(-125.75781 -103.85156)"/><path class="cls-1" d="M259.18555,164.30029c.70215.54,2.791,2.32227,3.27686,2.77246l-.37793.48633a38.07289,38.07289,0,0,0-2.89893-2.68262v5.56348h-.54v-6.13965a15.95167,15.95167,0,0,1-3.54736,4.4834,2.17619,2.17619,0,0,0-.396-.41455,13.648,13.648,0,0,0,3.76318-4.75342H254.9541v-.54h3.69141v-2.32275h-3.92529v-.54h8.67871v.54h-4.21338v2.32275h3.96094v.54h-3.96094Zm3.835-8.26465v.54h-7.94043v-.54h3.56543v-2.14258l.81006.07178c-.01807.09033-.08984.16211-.27.18018v1.89063Zm-6.19385.792a11.04445,11.04445,0,0,1,.90039,3.043l-.522.144a11.767,11.767,0,0,0-.86426-3.07861Zm5.00586.27051c-.03613.08984-.144.144-.30615.144a24.95916,24.95916,0,0,1-1.09863,2.84473s-.43213-.19824-.4502-.19824a21.79233,21.79233,0,0,0,1.1167-3.09668Zm9.45264,3.11475v.54h-2.39453V170.458h-.54053v-9.70508h-3.56494v1.20654c0,2.71875-.3418,6.03174-3.00684,8.5166a1.437,1.437,0,0,0-.396-.41406c2.55664-2.32275,2.86279-5.47363,2.86279-8.10254v-6.31982l.64795.252a27.75721,27.75721,0,0,0,5.52783-1.92676l.64844.46826a.22036.22036,0,0,1-.16211.0542.349.349,0,0,1-.126-.01807,36.17964,36.17964,0,0,1-5.99609,1.94434v3.79932Z" transform="translate(-125.75781 -103.85156)"/><path class="cls-1" d="M279.94043,160.44678h-5.76172v10.0293h-.54V154.75732h6.30176Zm-.54-5.14941h-5.22168v1.98047h5.22168Zm-5.22168,4.60938h5.22168v-2.08838h-5.22168Zm11.46973,2.377H284.0459v7.7959h-.54v-1.72852c-2.64746.18018-5.38379.32422-7.04053.41455a.24835.24835,0,0,1-.23389.21582l-.21631-.75635,1.89063-.08984v-5.85156H276.249v-.54053h9.39941Zm-2.14258,1.458v-1.458H278.4458v1.458Zm0,2.05273v-1.51221H278.4458v1.51221Zm-5.06006.54v1.76465c1.53076-.07178,3.29541-.16211,5.06006-.27v-1.49463ZM288.457,154.75732v14.65625c0,.55811-.16211.81055-.57617.91846a15.56926,15.56926,0,0,1-2.70117.10791,2.27939,2.27939,0,0,0-.2334-.59424c.61133,0,1.1875.01807,1.6377.01807,1.27832,0,1.333,0,1.333-.43213v-8.98486h-5.92383v-5.68945Zm-.54.54H282.5332v1.98047H287.917Zm-5.38379,4.60938H287.917v-2.08838H282.5332Z" transform="translate(-125.75781 -103.85156)"/><path class="cls-1" d="M298.69629,158.3042h-.2334a20.02141,20.02141,0,0,1-7.43652,4.51953,1.95236,1.95236,0,0,0-.37793-.46826,18.94826,18.94826,0,0,0,7.07617-4.05127H290.9541v-.54h7.74219V155.2793c-2.10645.19824-4.35742.32422-6.374.41406a1.2463,1.2463,0,0,0-.14355-.48584,80.96378,80.96378,0,0,0,12.334-1.27832l.50391.50391a.1346.1346,0,0,1-.08984.01807.61531.61531,0,0,1-.16211-.01807,46.38644,46.38644,0,0,1-5.52832.79248v2.53857h7.85059v.54h-6.80566a18.50463,18.50463,0,0,0,7.07617,3.83545,3.062,3.062,0,0,0-.37793.46777,19.95813,19.95813,0,0,1-7.45508-4.30322h-.28809v4.19531h-.54Zm-2.82617,5.72559c.54-.77393,1.02637-1.53027,1.458-2.19629l.75586.23389c-.05371.10791-.14355.144-.3418.10791-.36035.55859-.77441,1.18848-1.22461,1.85449h10.75v.54053h-3.94336a7.163,7.163,0,0,1-2.77344,3.40283,45.1469,45.1469,0,0,1,6.23047,1.98047l-.36035.46826a46.04641,46.04641,0,0,0-6.48145-2.08838c-2.05273,1.15234-4.916,1.83643-8.69727,2.12451a1.81163,1.81163,0,0,0-.252-.54,22.00922,22.00922,0,0,0,8.15625-1.76465c-1.54785-.37842-3.18652-.70215-4.86133-.99023l-.57617.77393-.46777-.252c.64746-.82812,1.458-1.9624,2.26855-3.11475h-4.77148v-.54053Zm.26953.54053c-.50391.73828-1.04395,1.47607-1.53027,2.16064,1.76465.28809,3.5293.64795,5.20313,1.062a7.38809,7.38809,0,0,0,2.917-3.22266Z" transform="translate(-125.75781 -103.85156)"/><path class="cls-1" d="M314.91406,168.13525a.56056.56056,0,0,1-.36035.126,21.66953,21.66953,0,0,1-5.293,2.19678,2.86844,2.86844,0,0,0-.36035-.4502,18.96045,18.96045,0,0,0,5.31152-2.17871Zm-4.1416-8.28223h12.62207v7.65186H310.77246Zm.54.54v1.80029h11.542v-1.80029Zm0,2.34082v1.83643h11.542v-1.83643Zm0,2.37646v1.85449h11.542v-1.85449Zm.46875-10.38916h10.60547v3.69141H311.78125Zm.54.54v2.61084h9.52441v-2.61084ZM324.835,170.47607a48.39473,48.39473,0,0,0-5.68945-2.21484l.4502-.396a54.04778,54.04778,0,0,1,5.67188,2.17871Z" transform="translate(-125.75781 -103.85156)"/><path class="cls-1" d="M335.5791,153.89307c-.03613.10791-.16211.16211-.28809.19824a22.78024,22.78024,0,0,0,8.13867,6.66162,1.77458,1.77458,0,0,0-.36035.4502,23.914,23.914,0,0,1-8.19238-6.752,22.361,22.361,0,0,1-7.86914,6.77c-.07129-.10791-.21582-.28809-.32324-.41406a20.53276,20.53276,0,0,0,7.9043-6.98633Zm-8.10254,9.90283v-.54h15.16016v.54h-8.8584l.05371.01807a.414.414,0,0,1-.3418.16211,52.08532,52.08532,0,0,1-2.59277,5.07764c2.75488-.07227,6.1582-.16211,9.45313-.27a28.12946,28.12946,0,0,0-3.15137-3.22314l.41406-.252a26.10377,26.10377,0,0,1,4.502,4.91553l-.4502.30566c-.25293-.37793-.55859-.82812-.93652-1.29639-4.5918.19824-9.5791.37842-12.5498.4502-.01855.144-.1084.19824-.23437.23438l-.252-.79248,2.5752-.05371a42.63634,42.63634,0,0,0,2.68262-5.27588Zm3.00684-4.05127h8.91309v.54H330.4834Z" transform="translate(-125.75781 -103.85156)"/></svg>