<svg id="レイヤー_1" data-name="レイヤー 1" xmlns="http://www.w3.org/2000/svg" viewBox="0 0 315.46382 80.84668">
  <defs>
    <style>
      .cls-1 {
        fill: #231815;
      }

      .cls-2 {
        fill: none;
        stroke: #231815;
        stroke-miterlimit: 10;
        stroke-width: 2px;
      }
    </style>
  </defs>
  <title>tdupresslogo3</title>
  <g>
    <path class="cls-1" d="M152.48389,143.15918l-5.5957,35.27344h-11.748l5.5957-35.27344h-9.72656l1.55273-9.96094h31.20117l-1.55273,9.96094Z" transform="translate(-125.06195 -131.99707)"/>
    <path class="cls-1" d="M160.89209,178.43262l7.14844-45.23437h16.66992a21.33226,21.33226,0,0,1,7.85156,1.43555,18.2694,18.2694,0,0,1,6.29883,3.95508,17.94189,17.94189,0,0,1,4.16016,6.123,19.6707,19.6707,0,0,1,1.43555,7.55859,26.60827,26.60827,0,0,1-.293,3.54492,25.71413,25.71413,0,0,1-4.92187,11.39648,28.39742,28.39742,0,0,1-9.72656,8.23242q-1.64136.791-2.88574,1.27441a25.5246,25.5246,0,0,1-3.00293.92285,28.13474,28.13474,0,0,1-3.09082.61523,22.88643,22.88643,0,0,1-2.97363.17578Zm17.34375-35.27344-4.01367,25.3125h2.63672a16.92941,16.92941,0,0,0,6.76758-1.3623,13.849,13.849,0,0,0,5.41992-4.2041,15.53079,15.53079,0,0,0,2.87109-7.08984,19.54038,19.54038,0,0,0,.17578-2.51953,11.71385,11.71385,0,0,0-.76172-4.35059,7.78212,7.78212,0,0,0-2.22656-3.14941,11.8316,11.8316,0,0,0-8.11523-2.63672Z" transform="translate(-125.06195 -131.99707)"/>
    <path class="cls-1" d="M240.63818,133.19824h11.748l-4.01367,25.42969q-.58667,3.457-1.25977,6.24023a20.24534,20.24534,0,0,1-2.10937,5.15625,17.18571,17.18571,0,0,1-3.89648,4.57031q-5.918,5.03906-15.76172,5.03906a27.77975,27.77975,0,0,1-8.17383-1.20117,15.17581,15.17581,0,0,1-3.38379-1.56738,12.43549,12.43549,0,0,1-2.68066-2.27051,13.20368,13.20368,0,0,1-2.92969-8.93555,52.63792,52.63792,0,0,1,.70313-7.03125l4.043-25.42969h11.748l-3.7207,23.81836a36.23238,36.23238,0,0,0-.52734,5.39063,7.85662,7.85662,0,0,0,1.43555,5.03906q1.43481,1.875,5.09766,1.875a8.412,8.412,0,0,0,5.56641-1.75781,9.69069,9.69069,0,0,0,2.90039-4.248,41.39989,41.39989,0,0,0,1.49414-6.29883Z" transform="translate(-125.06195 -131.99707)"/>
    <path class="cls-1" d="M252.6792,178.43262l7.14844-45.23437h17.98828a20.60481,20.60481,0,0,1,7.61719,1.25977,9.5694,9.5694,0,0,1,4.98047,3.83789,11.16078,11.16078,0,0,1,1.81641,6.5332,21.23079,21.23079,0,0,1-.32227,3.252,22.015,22.015,0,0,1-2.08008,6.82617,15.51712,15.51712,0,0,1-3.83789,4.80469,16.34125,16.34125,0,0,1-5.47852,2.8125,24.74241,24.74241,0,0,1-7.002.9082h-6.67969l-2.40234,15Zm17.40234-35.77148-1.72852,11.2793h1.96289a30.59526,30.59526,0,0,0,4.57031-.293,5.78081,5.78081,0,0,0,2.98828-1.43555,6.40138,6.40138,0,0,0,1.75781-3.7793q.11646-1.46484.11719-1.49414a4.06641,4.06641,0,0,0-.9668-2.90039,4.17388,4.17388,0,0,0-2.51953-1.11328,23.661,23.661,0,0,0-4.18945-.26367Z" transform="translate(-125.06195 -131.99707)"/>
    <path class="cls-1" d="M318.68457,159.8877l11.2793,18.54492H315.31543l-8.32031-17.40234h-.11719l-2.7832,17.40234H292.34717l7.14795-45.23437h17.57813a20.35614,20.35614,0,0,1,7.207,1.20117,9.3337,9.3337,0,0,1,4.834,3.7207,10.55682,10.55682,0,0,1,1.75781,6.24023,13.91948,13.91948,0,0,1-.23437,2.75391,18.1498,18.1498,0,0,1-2.10937,5.88867,14.3662,14.3662,0,0,1-4.07227,4.48242A12.99692,12.99692,0,0,1,318.68457,159.8877Zm-8.81836-17.69531-1.78711,11.2793h1.14258a17.6098,17.6098,0,0,0,4.13086-.41016,7.26122,7.26122,0,0,0,3.16406-1.69922,5.71827,5.71827,0,0,0,1.75781-3.51562q.11719-1.11328.11719-1.14258a3.614,3.614,0,0,0-2.05078-3.60352,13.167,13.167,0,0,0-5.332-.9082Z" transform="translate(-125.06195 -131.99707)"/>
    <path class="cls-1" d="M364.47559,143.15918H350.501l-1.20117,7.55859h13.27148l-1.582,9.96094H347.74707l-1.25977,7.793h13.97461l-1.55273,9.96094h-25.752l7.14844-45.23437h25.72266Z" transform="translate(-125.06195 -131.99707)"/>
    <path class="cls-1" d="M402.44434,135.71777l-6.123,9.11133a10.34537,10.34537,0,0,0-7.32422-2.98828,6.96432,6.96432,0,0,0-3.60352,1.02539,3.66182,3.66182,0,0,0-2.02148,2.75391,3.108,3.108,0,0,0,1.25977,2.69531,11.77192,11.77192,0,0,0,3.22266,1.61133l2.90039.9082a16.81238,16.81238,0,0,1,6.88477,3.7207,8.30492,8.30492,0,0,1,2.46094,6.35742,17.13218,17.13218,0,0,1-.17578,2.28516,22.78169,22.78169,0,0,1-2.31445,7.14844,15.32231,15.32231,0,0,1-4.27734,5.03906,20.359,20.359,0,0,1-6.167,3.16406,24.13023,24.13023,0,0,1-7.33887,1.084A23.78109,23.78109,0,0,1,364.71,174.47754l6.5332-9.49219q4.6875,4.6875,9.72656,4.6875a7.69293,7.69293,0,0,0,4.18945-1.20117,4.38846,4.38846,0,0,0,2.22656-3.36914,3.5424,3.5424,0,0,0-1.78711-3.28125,18.2217,18.2217,0,0,0-4.51172-1.875,31.74846,31.74846,0,0,1-5.77148-2.168,7.65153,7.65153,0,0,1-3.39844-2.87109,8.1906,8.1906,0,0,1-1.25977-4.80469,16.49014,16.49014,0,0,1,.23438-2.92969,18.21265,18.21265,0,0,1,3.22266-7.96875,16.40729,16.40729,0,0,1,2.94434-3.09082,17.71647,17.71647,0,0,1,3.501-2.21191,18.70009,18.70009,0,0,1,8.32031-1.9043,26.16191,26.16191,0,0,1,4.6875.41016,32.73382,32.73382,0,0,1,4.80469,1.31836A24.05659,24.05659,0,0,1,402.44434,135.71777Z" transform="translate(-125.06195 -131.99707)"/>
    <path class="cls-1" d="M439.417,135.71777l-6.123,9.11133a10.34537,10.34537,0,0,0-7.32422-2.98828,6.96432,6.96432,0,0,0-3.60352,1.02539,3.66182,3.66182,0,0,0-2.02148,2.75391,3.108,3.108,0,0,0,1.25977,2.69531,11.77192,11.77192,0,0,0,3.22266,1.61133l2.90039.9082a16.81238,16.81238,0,0,1,6.88477,3.7207,8.30492,8.30492,0,0,1,2.46094,6.35742,17.13218,17.13218,0,0,1-.17578,2.28516,22.78169,22.78169,0,0,1-2.31445,7.14844,15.32231,15.32231,0,0,1-4.27734,5.03906,20.35381,20.35381,0,0,1-6.166,3.16406,24.13662,24.13662,0,0,1-7.33984,1.084,23.78109,23.78109,0,0,1-15.11719-5.15625l6.5332-9.49219q4.6875,4.6875,9.72656,4.6875a7.69293,7.69293,0,0,0,4.18945-1.20117,4.38846,4.38846,0,0,0,2.22656-3.36914,3.5424,3.5424,0,0,0-1.78711-3.28125,18.2217,18.2217,0,0,0-4.51172-1.875,31.74846,31.74846,0,0,1-5.77148-2.168,7.65153,7.65153,0,0,1-3.39844-2.87109,8.1906,8.1906,0,0,1-1.25977-4.80469,16.49014,16.49014,0,0,1,.23438-2.92969,18.21265,18.21265,0,0,1,3.22266-7.96875,16.41219,16.41219,0,0,1,2.94531-3.09082,17.7098,17.7098,0,0,1,3.5-2.21191,18.70009,18.70009,0,0,1,8.32031-1.9043,26.16191,26.16191,0,0,1,4.6875.41016,32.73382,32.73382,0,0,1,4.80469,1.31836A24.0566,24.0566,0,0,1,439.417,135.71777Z" transform="translate(-125.06195 -131.99707)"/>
  </g>
  <g>
    <path class="cls-1" d="M170.61719,205.40283H164.1123a23.8171,23.8171,0,0,0,9.001,5.6167,6.96543,6.96543,0,0,0-1.12793,1.39209,25.76435,25.76435,0,0,1-9.28906-6.45654v6.81641H161.04v-6.72021a26.23273,26.23273,0,0,1-9.09668,6.3125,6.71664,6.71664,0,0,0-1.12793-1.34424,24.353,24.353,0,0,0,8.83252-5.6167h-6.12061v-8.85645H161.04v-2.18457H151.3916v-1.53613H161.04v-2.32812l2.13623.12012c-.02393.168-.144.28809-.48.33594v1.87207h9.91309v1.53613h-9.91309v2.18457h7.9209Zm-15.50537-7.53662v2.47217H161.04v-2.47217Zm0,3.72021v2.52051H161.04v-2.52051Zm13.873-3.72021h-6.28857v2.47217h6.28857Zm0,6.24072v-2.52051h-6.28857v2.52051Z" transform="translate(-125.06195 -131.99707)"/>
    <path class="cls-1" d="M181.46387,206.50732a.48777.48777,0,0,1-.52783.21582,21.66061,21.66061,0,0,1-4.68066,5.13623,6.95732,6.95732,0,0,0-1.2959-.96,15.92966,15.92966,0,0,0,4.51221-5.04053Zm15.16943-13.12939V194.938H175.29541v-1.56006H185.04v-2.92822l2.16016.12012c-.02393.19189-.144.312-.48.33594v2.47217Zm-2.92822,10.99316h-6.98486v6.45654c0,1.91992-.83984,1.94385-5.37646,1.94385a6.6723,6.6723,0,0,0-.57568-1.53613c1.03174.02393,1.96777.04834,2.688.04834,1.46436,0,1.584,0,1.584-.48047v-6.43213H178.3916v-7.105h15.31348ZM180,198.70654v4.22412h12.0249v-4.22412Zm15.12109,13.27295a41.63015,41.63015,0,0,0-4.56055-5.37646l1.44043-.6958a44.15774,44.15774,0,0,1,4.68018,5.23242Z" transform="translate(-125.06195 -131.99707)"/>
    <path class="cls-1" d="M209.064,201.34668v-5.7124h-7.89648v3.50439h-1.46387v-4.70459H209.064v-1.6084h-7.99268v-1.2959h17.71387v1.2959h-8.13672v1.6084h9.55273v4.70459H218.665v-3.50439h-8.0166v5.7124Zm1.48828,8.88086c0,.81592.312.98389,1.87207.98389h5.59277c1.31982,0,1.53613-.43213,1.68018-2.95215a4.58178,4.58178,0,0,0,1.416.55176c-.24023,2.97656-.76807,3.7207-3.00049,3.7207h-5.76025c-2.59229,0-3.33643-.43213-3.33643-2.32812v-.84033h-5.68848v1.272h-1.56006v-8.44873h16.46533v7.17676h-7.68066Zm-8.52051-9.57715v-1.08008h5.7124v1.08008Zm.48-3.57617h5.2085v1.08008h-5.2085Zm6.50439,6.33643h-5.68848V205.187h5.68848Zm-5.68848,4.72852h5.68848v-1.82422h-5.68848ZM216.625,205.187v-1.77637h-6.07275V205.187Zm-6.07275,2.95215H216.625v-1.82422h-6.07275Zm1.46436-11.06494h5.32813v1.08008H212.0166Zm0,3.57617v-1.08008h5.92822v1.08008Z" transform="translate(-125.06195 -131.99707)"/>
    <path class="cls-1" d="M227.71191,199.23438c.624.88818,2.3042,3.55225,2.66406,4.20068l-.86426,1.19971c-.312-.76807-1.12793-2.32812-1.7998-3.52832v11.61719h-1.48828v-11.689a27.89944,27.89944,0,0,1-2.832,7.00879,10.52634,10.52634,0,0,0-.81641-1.34424,29.10367,29.10367,0,0,0,3.45654-9.40869h-2.97656v-1.48828h3.16846v-5.35254l1.94434.144c-.02441.144-.144.26416-.45605.312v4.89648h2.61621v1.48828h-2.61621Zm11.23291,5.0166a25.12277,25.12277,0,0,0,.936,3.55225,11.06172,11.06172,0,0,0,2.04-3.07227l1.68018.57617q-.07178.21606-.43213.21582a13.00734,13.00734,0,0,1-2.71191,3.64844c.71973,1.416,1.56006,2.208,2.56787,2.208.72021,0,.98438-.6001,1.12842-2.88037a3.248,3.248,0,0,0,1.12793.76807c-.28809,2.73633-.81592,3.55273-2.376,3.55273-1.48828-.02441-2.64062-.98437-3.55273-2.66455a18.9631,18.9631,0,0,1-4.36816,2.54443,7.14353,7.14353,0,0,0-.88818-1.05615,15.96024,15.96024,0,0,0,4.65674-2.76025,26.08755,26.08755,0,0,1-1.24854-4.63232h-4.03223c-.04785.50391-.0957,1.00781-.168,1.51221a25.45826,25.45826,0,0,1,3.48047,2.42383l-.91211,1.12842a22.79628,22.79628,0,0,0-2.80859-2.13623,8.80841,8.80841,0,0,1-3.19189,5.52051,4.55648,4.55648,0,0,0-.98437-1.05615c2.23242-1.584,2.9043-4.4165,3.14453-7.39258H230.3999v-1.34424h6.88867a87.04911,87.04911,0,0,1-.81592-12.43311l1.94385.12012c-.02393.168-.144.28809-.48.33594a74.382,74.382,0,0,0,.792,11.97705h3.55225a15.41965,15.41965,0,0,0-2.25586-1.51221l.792-.792a13.13561,13.13561,0,0,1,2.66406,1.752l-.50391.55225h1.94434V204.251Zm-8.88086-4.6084.83984-.04834a29.10886,29.10886,0,0,0,1.70459-2.47217,17.43391,17.43391,0,0,0-2.6167-2.49609l.69629-.86377c.19189.14355.38428.2876.6001.43164a27.057,27.057,0,0,0,1.53613-3.48l1.53613.67188c-.07227.144-.24023.19189-.48.19189a32.20174,32.20174,0,0,1-1.77637,3.3125,12.998,12.998,0,0,1,1.15234,1.15186c.6001-1.03174,1.17578-2.064,1.584-2.92822l1.48828.74414a.584.584,0,0,1-.50439.19189,60.73146,60.73146,0,0,1-3.50391,5.47266l2.61621-.168a14.239,14.239,0,0,0-.74414-1.6084l1.03223-.38379a11.91484,11.91484,0,0,1,1.43994,3.50439l-1.104.48c-.04834-.26416-.12012-.57617-.21631-.91211-1.728.19189-3.33594.35986-4.46436.45605a.386.386,0,0,1-.28809.312Zm9.19287-.28809c.48-.624,1.00781-1.416,1.53613-2.23242a17.40612,17.40612,0,0,0-2.61621-2.49609l.6958-.86377.57617.43164a24.32653,24.32653,0,0,0,1.56006-3.48l1.53613.67188c-.07178.144-.23975.19189-.48.19189a28.14258,28.14258,0,0,1-1.80029,3.28857,13.52334,13.52334,0,0,1,1.17627,1.17578c.624-1.03174,1.17627-2.064,1.584-2.92822l1.46436.74414c-.04785.12012-.24023.19189-.48.19189a61.12746,61.12746,0,0,1-3.36035,5.23242c.88818-.04785,1.82422-.0957,2.832-.168-.23975-.52783-.50391-1.03174-.76807-1.48779l1.03223-.4082a13.13882,13.13882,0,0,1,1.56006,3.48047l-1.08008.52783a10.74111,10.74111,0,0,0-.33594-1.104c-1.752.21582-3.43213.38379-4.56055.48a.35832.35832,0,0,1-.33594.312l-.52783-1.51221Z" transform="translate(-125.06195 -131.99707)"/>
    <path class="cls-1" d="M268.65723,199.18652h-9.38477c1.56006,5.73633,4.65625,10.15283,9.76855,12.04883a6.67,6.67,0,0,0-1.19971,1.51221c-5.0166-2.064-8.06494-6.3125-9.84082-12.09717a16.44194,16.44194,0,0,1-9.91309,12.12109,6.14513,6.14513,0,0,0-1.15186-1.36816c6.33643-2.56787,8.7124-7.36865,9.62451-12.2168h-9.26465v-1.65625h9.52881a61.16967,61.16967,0,0,0,.312-7.03271l2.25635.12012c-.02393.21582-.21631.33594-.52832.4082a58.72023,58.72023,0,0,1-.33594,6.50439h10.12891Z" transform="translate(-125.06195 -131.99707)"/>
    <path class="cls-1" d="M292.70508,204.63477V206.147h-9.96094v4.65625c0,2.0166-1.15186,2.04053-5.59229,2.04053a7.59141,7.59141,0,0,0-.69629-1.58447c1.22412.04834,2.30469.07227,3.07227.07227,1.39258,0,1.56055,0,1.56055-.52832V206.147h-9.84082v-1.51221h9.84082v-2.08789l1.12793.07178a19.79231,19.79231,0,0,0,3.48047-2.28027H275.25586v-1.43994h12.145l.28809-.09619,1.248.792a.51526.51526,0,0,1-.36035.21631,25.83569,25.83569,0,0,1-5.83252,3.96045v.86377Zm-19.32178-8.6167v3.86426h-1.53613V194.5542h3.74463a17.3637,17.3637,0,0,0-2.13623-3.14453l1.34424-.64795a15.66654,15.66654,0,0,1,2.42432,3.43213l-.69629.36035h5.08838a17.26858,17.26858,0,0,0-1.896-3.67236l1.39209-.52832a15.441,15.441,0,0,1,2.04,3.84033l-.83984.36035h4.2002a29.296,29.296,0,0,0,2.76025-3.93652,9.54563,9.54563,0,0,1,1.896.792.47979.47979,0,0,1-.50391.19189,35.96834,35.96834,0,0,1-2.3042,2.95264h3.91211v5.32813h-1.584v-3.86426Z" transform="translate(-125.06195 -131.99707)"/>
    <path class="cls-1" d="M301.2959,204.80273c.88867.624,3.40918,2.66455,4.00879,3.19238l-.96,1.22412c-.55176-.624-1.96777-1.94434-3.04883-2.9043v6.45654h-1.584V206.147a18.5562,18.5562,0,0,1-3.98486,4.72852,6.34237,6.34237,0,0,0-1.07959-1.17627,16.48208,16.48208,0,0,0,4.75293-5.59229H295.103v-1.416h4.60889v-2.54443H294.7915v-1.416h2.95215a14.58452,14.58452,0,0,0-1.03223-3.69629l1.2959-.36035a14.22152,14.22152,0,0,1,1.12842,3.79248l-.88818.26416h4.03271c-.31152-.12012-.64746-.24023-.67187-.24023a26.49275,26.49275,0,0,0,1.34375-3.88818l1.82422.57617c-.04785.144-.21582.21582-.47949.23975-.33594.936-.91211,2.32813-1.39258,3.3125h3.50488v1.416h-4.873a.70631.70631,0,0,1-.24023.04785v2.49658h4.75293v1.416H301.2959Zm4.6084-11.64062v1.39209H295.271v-1.39209h4.44092v-2.68848l2.04.12012c-.02344.168-.14355.28809-.45605.33594v2.23242Zm11.18555,5.56836v1.51221h-2.832v12.52881h-1.584V200.24268h-3.793v.8877c0,3.60059-.45605,8.353-3.91211,11.68945a3.62075,3.62075,0,0,0-1.12793-1.12842c3.14355-3.02393,3.50391-7.17627,3.50391-10.585v-8.35254l1.17676.38379a33.42053,33.42053,0,0,0,6.69629-2.5918l1.6084,1.22412a.58777.58777,0,0,1-.50488.07178,40.45816,40.45816,0,0,1-7.44043,2.54443v4.34424Z" transform="translate(-125.06195 -131.99707)"/>
    <path class="cls-1" d="M328.75293,199.42627h-7.20117v13.36914h-1.584V191.52979h8.78516Zm-1.53613-6.64844h-5.665v2.04h5.665Zm-5.665,5.40039h5.665v-2.16016h-5.665Zm14.42578,3.9126h-1.84863v10.12891h-1.48828v-2.01611c-3.19141.23975-6.38379.43164-8.4248.55176a.379.379,0,0,1-.33594.312l-.43164-1.60791,2.208-.09619v-7.27246h-1.89648V200.8667h12.21777Zm-3.33691,1.56006v-1.56006h-5.54395v1.56006Zm0,2.688V204.731h-5.54395v1.60791Zm-5.54395,1.08008v1.87256c1.7041-.07227,3.624-.168,5.54395-.28809v-1.58447Zm12.91309-15.88916V210.5874c0,2.06445-.96,2.16016-4.6084,2.16016a5.52746,5.52746,0,0,0-.52832-1.65625c.81641.02441,1.584.04834,2.16016.04834,1.248,0,1.39258,0,1.39258-.55225V199.45068h-7.417v-7.9209Zm-1.584,1.248h-5.85645v2.04h5.85645Zm-5.85645,5.42432h5.85645v-2.18408h-5.85645Z" transform="translate(-125.06195 -131.99707)"/>
    <path class="cls-1" d="M354.67285,201.89893h-1.584v-.07227a.57275.57275,0,0,1-.36035.02393c-.38379.624-.83984,1.29639-1.2959,2.01611h13.5127v1.4165H359.833a9.95257,9.95257,0,0,1-2.97559,3.76807,70.25315,70.25315,0,0,1,7.39258,2.35205l-.98437,1.34424a63.57518,63.57518,0,0,0-8.041-2.61621c-2.71191,1.46436-6.4082,2.28027-11.3291,2.66406a4.47174,4.47174,0,0,0-.64746-1.46387,30.54044,30.54044,0,0,0,9.69629-1.77637c-1.53613-.35986-3.14355-.71973-4.77637-1.03174l-.57617.76807-1.4873-.55225c.71973-.936,1.60742-2.16016,2.51953-3.45605h-5.71191v-1.4165H349.584c.64844-.96,1.248-1.91992,1.77637-2.76025l1.72852.48v-4.68018a23.57356,23.57356,0,0,1-9.40918,5.68848,6.35378,6.35378,0,0,0-1.00781-1.272,23.309,23.309,0,0,0,8.44824-4.4165h-8.0166v-1.39209h9.98535v-2.61621c-2.61621.19189-5.35254.33594-7.84863.4082a5.06444,5.06444,0,0,0-.36035-1.27246c5.49707-.168,12.26563-.6958,15.79395-1.53613l1.27148,1.248a.35576.35576,0,0,1-.24023.07227.66827.66827,0,0,1-.21582-.02393,59.68226,59.68226,0,0,1-6.81641.96v2.76025h10.10449v1.39209h-8.08789a23.29929,23.29929,0,0,0,8.47266,4.15234,7.03164,7.03164,0,0,0-1.05664,1.34424,23.29229,23.29229,0,0,1-9.4082-5.49658h-.02441Zm-5.61621,5.42432c1.96777.35986,3.93652.792,5.832,1.248a8.83015,8.83015,0,0,0,3.09668-3.28809h-7.5127Z" transform="translate(-125.06195 -131.99707)"/>
    <path class="cls-1" d="M375.67285,209.77148a.81345.81345,0,0,1-.48047.168,29.174,29.174,0,0,1-7.08008,2.832,9.197,9.197,0,0,0-1.17676-1.2002,25.01532,25.01532,0,0,0,7.08105-2.78418Zm-6.24121-11.44922h17.16211v10.417H369.43164Zm1.36816-6.88867h14.40137v5.40088H370.7998Zm.24023,8.11279v1.84814H384.9375v-1.84814Zm0,3.02441v1.87207H384.9375V202.5708Zm0,3.04834v1.896H384.9375v-1.896Zm1.36816-12.84131v2.68848h11.11328v-2.68848Zm15.33789,20.042a60.60421,60.60421,0,0,0-7.68066-2.9043l1.416-1.05615a78.04861,78.04861,0,0,1,7.63184,2.78418Z" transform="translate(-125.06195 -131.99707)"/>
    <path class="cls-1" d="M403.34473,190.5459a.633.633,0,0,1-.50391.35986,27.49485,27.49485,0,0,0,10.46484,8.11279,6.87282,6.87282,0,0,0-1.03223,1.43994,30.0807,30.0807,0,0,1-10.44043-8.40088,28.56,28.56,0,0,1-10.20117,8.49707,7.28762,7.28762,0,0,0-.93652-1.29639c4.22461-2.04,8.377-5.64014,10.27344-8.85645ZM391.94434,204.251v-1.53613H412.082V204.251H400.53711l.28711.0957c-.07129.16846-.26367.24023-.5752.26416a61.1866,61.1866,0,0,1-2.833,5.56836c3.19238-.07178,6.91309-.19189,10.56152-.312a38.52043,38.52043,0,0,0-3.52832-3.6001l1.36816-.74414a33.023,33.023,0,0,1,5.80859,6.40869l-1.44043.91211a17.0525,17.0525,0,0,0-1.17578-1.68018c-5.833.312-12.02539.57617-15.86621.6958a.40714.40714,0,0,1-.38379.33643l-.59961-1.92041c1.00781,0,2.18359-.02393,3.50391-.07178a52.19153,52.19153,0,0,0,2.85645-5.95264Zm4.10352-6.19287h11.6416v1.51221h-11.6416Z" transform="translate(-125.06195 -131.99707)"/>
  </g>
  <line class="cls-2" y1="52.77581" x2="315.46382" y2="52.77581"/>
</svg>
